<svg xmlns="http://www.w3.org/2000/svg" xmlns:xlink="http://www.w3.org/1999/xlink" version="1.1" x="0px" y="0px" viewBox="0 0 48 60" enable-background="new 0 0 48 48" xml:space="preserve" fill="#E74C3C"><g><path d="M36.711,22.02c0.129,0,0.254,0.016,0.381,0.02V0.99c0-0.547-0.442-0.99-0.989-0.99H0.99C0.443,0,0,0.443,0,0.99v46.021   C0,47.558,0.443,48,0.99,48h35.113c0.547,0,0.989-0.442,0.989-0.989v-0.608c-0.127,0.004-0.252,0.02-0.381,0.02   c-6.769,0-12.278-5.474-12.278-12.201S29.942,22.02,36.711,22.02z M22.352,7.564h8.122c0.547,0,0.989,0.442,0.989,0.99   c0,0.547-0.442,0.989-0.989,0.989h-8.122c-0.546,0-0.99-0.442-0.99-0.989C21.362,8.006,21.806,7.564,22.352,7.564z M22.352,13.742   h8.122c0.547,0,0.989,0.442,0.989,0.99c0,0.547-0.442,0.99-0.989,0.99h-8.122c-0.546,0-0.99-0.443-0.99-0.99   C21.362,14.184,21.806,13.742,22.352,13.742z M5.627,8.554c0-0.547,0.443-0.99,0.99-0.99h9.285c0.546,0,0.99,0.442,0.99,0.99   v12.355c0,0.547-0.443,0.99-0.99,0.99H6.617c-0.547,0-0.99-0.443-0.99-0.99V8.554z M21.801,40.438H6.617   c-0.547,0-0.99-0.443-0.99-0.99s0.443-0.989,0.99-0.989h15.184c0.546,0,0.99,0.442,0.99,0.989S22.347,40.438,21.801,40.438z    M21.801,34.261H6.617c-0.547,0-0.99-0.443-0.99-0.99s0.443-0.989,0.99-0.989h15.184c0.546,0,0.99,0.442,0.99,0.989   S22.347,34.261,21.801,34.261z M21.801,28.078H6.617c-0.547,0-0.99-0.442-0.99-0.989S6.07,26.1,6.617,26.1h15.184   c0.546,0,0.99,0.442,0.99,0.989S22.347,28.078,21.801,28.078z M22.352,21.901c-0.546,0-0.99-0.443-0.99-0.99s0.444-0.99,0.99-0.99   h8.122c0.547,0,0.989,0.443,0.989,0.99s-0.442,0.99-0.989,0.99H22.352z"/><path d="M36.711,23.009c-6.224,0-11.288,5.03-11.288,11.211s5.064,11.211,11.288,11.211C42.936,45.432,48,40.402,48,34.221   S42.936,23.009,36.711,23.009z M41.026,35.209H37.7v3.327c0,0.547-0.443,0.989-0.99,0.989c-0.546,0-0.989-0.442-0.989-0.989v-3.327   h-3.325c-0.546,0-0.989-0.442-0.989-0.989s0.443-0.989,0.989-0.989h3.325v-3.325c0-0.547,0.443-0.989,0.989-0.989   c0.547,0,0.99,0.442,0.99,0.989v3.325h3.326c0.547,0,0.99,0.442,0.99,0.989S41.573,35.209,41.026,35.209z" /></g><text x="0" y="63" fill="#000000" font-size="5px" font-weight="bold" font-family="'Helvetica Neue', Helvetica, Arial-Unicode, Arial, Sans-serif"></text><text x="0" y="68" fill="#000000" font-size="5px" font-weight="bold" font-family="'Helvetica Neue', Helvetica, Arial-Unicode, Arial, Sans-serif"></text></svg>