<svg xmlns="http://www.w3.org/2000/svg" xmlns:xlink="http://www.w3.org/1999/xlink" version="1.1" x="0px" y="0px" viewBox="0 0 90 112.5" enable-background="new 0 0 90 90" xml:space="preserve">
	<path d="M23.286,16.692c-1.502,0-2.719-1.217-2.719-2.717V2.716c0-1.5,1.217-2.716,2.719-2.716c1.5,0,2.719,1.216,2.719,2.716  v11.259C26.005,15.476,24.786,16.692,23.286,16.692z" fill="#424242" />
	<path d="M56.503,16.692c-1.5,0-2.719-1.217-2.719-2.717V2.716c0-1.5,1.219-2.716,2.719-2.716c1.502,0,2.718,1.216,2.718,2.716  v11.259C59.221,15.476,58.005,16.692,56.503,16.692z" fill="#424242"/>
	<path d="M29.019,69.557h-3.164V54.895h2.338c0.129-0.644,0.287-1.276,0.461-1.903h-2.799V38.802h11.771  c1.012-0.875,2.082-1.68,3.209-2.409v-13.23h13.078v8.729c0.629-0.056,1.267-0.089,1.905-0.104v-8.624H67.38v10.732  c1.209,0.491,2.373,1.063,3.492,1.706V14.364c0-3.532-2.873-6.405-6.404-6.405h-2.725v6.017c0,2.895-2.347,5.241-5.24,5.241  s-5.239-2.346-5.239-5.241V7.958H28.528v6.017c0,2.895-2.35,5.241-5.242,5.241s-5.24-2.346-5.24-5.241V7.958h-2.723  c-3.535,0-6.408,2.873-6.408,6.405v52.28c0,3.531,2.873,6.406,6.408,6.406h15.082C29.87,71.923,29.407,70.755,29.019,69.557z   M25.854,23.163H38.93v13.732H25.854V23.163z M23.95,69.557h-8.627c-1.609,0-2.914-1.308-2.914-2.912v-11.75H23.95V69.557z   M23.95,52.989H12.409V38.802H23.95V52.989z M23.95,36.896H12.409V23.163H23.95V36.896z" fill="#424242"/>
	<path d="M56.505,85.236c-13.553,0-24.58-11.025-24.58-24.579s11.027-24.578,24.58-24.578c13.552,0,24.576,11.024,24.576,24.578  S70.057,85.236,56.505,85.236z M56.505,41.739c-10.432,0-18.92,8.487-18.92,18.918s8.488,18.92,18.92,18.92  c10.431,0,18.916-8.488,18.916-18.92C75.421,50.225,66.936,41.739,56.505,41.739z" fill="#424242"/>
	<path d="M55.229,61.359v-7.483h-6.804c-1.118,0-2.028,0.908-2.028,2.026v5.457H55.229z" fill="#EF5350"/><path d="M58.9,61.359h8.83v-5.457c0-1.118-0.905-2.026-2.028-2.026H58.9V61.359z" fill="#EF5350"/>
	<path d="M58.9,65.107v7.562h6.802c1.123,0,2.028-0.905,2.028-2.024v-5.535H58.9V65.107z" fill="#EF5350"/>
	<path d="M55.229,65.107h-8.832v5.535c0,1.118,0.91,2.024,2.028,2.024h6.804V65.107z" fill="#EF5350"/>
	<path d="M64.396,46.782c-1.35-1.334-3.521-1.324-4.855,0.022c-0.828,0.834-1.816,3.694-2.455,5.764  c-0.658-2.062-1.678-4.907-2.508-5.731c-1.348-1.336-3.523-1.323-4.859,0.022c-1.334,1.349-1.322,3.522,0.021,4.856  c0.717,0.707,2.914,1.534,4.832,2.158h4.947c1.932-0.646,4.184-1.511,4.898-2.233C65.755,50.293,65.745,48.118,64.396,46.782z" fill="#EF5350"/>
</svg>