<svg xmlns="http://www.w3.org/2000/svg" xmlns:xlink="http://www.w3.org/1999/xlink" version="1.1" x="0px" y="0px" viewBox="0.5 24.5 24 30" enable-background="new 0.5 24.5 24 24" xml:space="preserve" fill="#444444"><g><circle cx="10.5" cy="32.5" r="4"/><path d="M14.5,38.5l-2.4,8l-1.138-5.692L12.5,38.5h-4l1.539,2.308L8.9,46.5l-2.4-8c-2.209,0-4,1.791-4,4v6h16v-6   C18.5,40.291,16.709,38.5,14.5,38.5z"/><path d="M24.5,30.5c0-2.209-1.791-4-4-4s-4,1.791-4,4c0,1.861,1.278,3.412,3,3.858V37.5c0,0.553,0.447,1,1,1s1-0.447,1-1v-3.142   C23.222,33.912,24.5,32.361,24.5,30.5z M20.5,32.5c-1.103,0-2-0.897-2-2s0.897-2,2-2s2,0.897,2,2S21.603,32.5,20.5,32.5z"/></g><text x="0.5" y="63.5" fill="#000000" font-size="5px" font-weight="bold" font-family="'Helvetica Neue', Helvetica, Arial-Unicode, Arial, Sans-serif">Created by Rflor</text><text x="0.5" y="68.5" fill="#000000" font-size="5px" font-weight="bold" font-family="'Helvetica Neue', Helvetica, Arial-Unicode, Arial, Sans-serif">from the Noun Project</text></svg>