<svg xmlns:dc="http://purl.org/dc/elements/1.1/" xmlns:cc="http://creativecommons.org/ns#" xmlns:rdf="http://www.w3.org/1999/02/22-rdf-syntax-ns#" xmlns:svg="http://www.w3.org/2000/svg" xmlns="http://www.w3.org/2000/svg" xmlns:sodipodi="http://sodipodi.sourceforge.net/DTD/sodipodi-0.dtd" xmlns:inkscape="http://www.inkscape.org/namespaces/inkscape" version="1.1" x="0px" y="0px" viewBox="0 0 100 125"><g transform="translate(0,-952.36218)"><path d="m 58.6457,963.21261 -33.7698,41.99509 c 5.5598,11.542 13.4328,20.3792 26.3279,25.2346 l 33.8948,-39.55607 c -7.2081,-2.6855 -12.7,-5.41477 -17.0099,-9.72485 -4.1944,-4.19456 -7.0828,-9.92059 -9.443,-17.94877 z m -9.0365,3.72108 -34.489,40.05641 c 12.3315,11.7342 21.4813,24.0336 35.3645,27.4235 -14.7192,-5.3366 -23.8572,-15.6388 -29.83,-28.5805 -0.313,-0.6714 -0.2122,-1.5163 0.2502,-2.095 l 29.2045,-36.30409 z m 36.8965,28.48664 -32.0187,37.36727 0,8.7242 32.0187,-38.2428 z m -69.9784,19.35587 -3.033,3.0332 c 8.4514,6.8622 17.7933,13.1378 27.6724,17.4485 -9.4467,-4.7619 -17.3973,-12.3777 -24.6394,-20.4817 z m -0.8755,9.8813 -0.2501,0.2501 c 2.4787,2.4252 6.5137,5.3364 12.2259,8.1927 1.0439,0.5219 2.1546,1.018 3.2831,1.5322 -5.3246,-2.951 -10.4342,-6.3391 -15.2589,-9.975 z m -0.1876,5.7848 0,2.2201 c 2.5656,1.2213 6.4895,2.7912 11.4442,4.5341 -3.9494,-1.9997 -8.1854,-4.321 -11.4442,-6.7542 z" style="text-indent:0;text-transform:none;direction:ltr;block-progression:tb;baseline-shift:baseline;color:#000000;enable-background:accumulate;" fill="#E74C3C" fill-opacity="1" stroke="none" marker="none" visibility="visible" display="inline" overflow="visible"/></g><text x="0" y="115" fill="#000000" font-size="5px" font-weight="bold" font-family="'Helvetica Neue', Helvetica, Arial-Unicode, Arial, Sans-serif"></text><text x="0" y="120" fill="#000000" font-size="5px" font-weight="bold" font-family="'Helvetica Neue', Helvetica, Arial-Unicode, Arial, Sans-serif"></text></svg>