<svg xmlns="http://www.w3.org/2000/svg" xmlns:xlink="http://www.w3.org/1999/xlink" version="1.1" x="0px" y="0px" viewBox="0 0 100 125" style="enable-background:new 0 0 100 100;" xml:space="preserve"><g><g>
	<path d="M87.325,40.097c-0.004-0.009-0.009-0.016-0.013-0.025c-0.087-0.199-0.208-0.387-0.371-0.55    c-0.163-0.163-0.351-0.284-0.55-0.37c-0.009-0.004-0.016-0.009-0.025-0.013C86.147,39.047,85.914,39,85.68,39l-5.943,0    c-0.985,0-1.783,0.798-1.783,1.783s0.798,1.783,1.783,1.783h1.639l-2.546,2.546c-3.461-2.293-8.17-1.915-11.219,1.134    c-3.481,3.481-3.481,9.125,0,12.607c3.481,3.481,9.125,3.481,12.607,0c3.049-3.049,3.427-7.758,1.134-11.219l2.546-2.546v1.639    c0,0.985,0.798,1.783,1.783,1.783c0.985,0,1.783-0.798,1.783-1.783l0-5.943C87.463,40.549,87.416,40.316,87.325,40.097z     M77.696,56.331c-2.085,2.085-5.479,2.085-7.564,0c-2.085-2.085-2.085-5.479,0-7.564c2.085-2.085,5.479-2.085,7.564,0    C79.782,50.852,79.782,54.246,77.696,56.331z" fill="#EF5350"/>
	<path d="M45.737,57H34.21C21.944,57,12,66.93,12,79.18l0.053,2.623c0,3.422,2.778,6.197,6.206,6.197h43.536    C65.222,88,68,85.225,68,81.803l-0.053-2.623C67.947,66.93,58.004,57,45.737,57z" fill="#424242"/>
	<path d="M40,26.021c3.188,0,5.886,2.112,6.756,5H57c-0.999-8.445-8.223-15-17-15s-16.001,6.555-17,15h10.244    C34.114,28.134,36.812,26.021,40,26.021z" fill="#424242"/>
	<path d="M40,50.021c8.777,0,16.001-6.555,17-15H46.756c-0.87,2.887-3.568,5-6.756,5s-5.886-2.113-6.756-5H23    C23.999,43.466,31.223,50.021,40,50.021z" fill="#424242"/>
	<ellipse cx="40" cy="33.021" rx="3.023" ry="3" fill="#424242"/></g></g></svg>