<svg xmlns="http://www.w3.org/2000/svg" xmlns:xlink="http://www.w3.org/1999/xlink" version="1.1" x="0px" y="0px" viewBox="0 0 100 125" enable-background="new 0 0 100 100" xml:space="preserve" fill="#465E8D"><g><path d="M62.476,98.632h17.695v-5.584l18.296-71.532l0.026-0.099L23.256,1.368l-5.028,18.546H1.507v78.717h61.349 M60.372,75.817   h-52.2V60.829c0.07-0.039,0.144-0.084,0.212-0.136l22.322-16.855l3.937,3.847c0.725,0.707,1.87,0.681,2.566-0.057   c0.689-0.737,0.663-1.909-0.059-2.615l-5.044-4.926c-0.637-0.622-1.622-0.686-2.33-0.151L8.172,56.253v-2.629   c0.054-0.034,0.106-0.07,0.156-0.108l21.427-16.584L51.479,56.47c0.346,0.31,0.772,0.462,1.201,0.462   c0.474,0,0.95-0.19,1.305-0.568l8.952-9.507l10.57,6.794v22.167H59.949 M27.965,9.574l38.806,10.34H25.235L27.965,9.574z    M73.507,49.277l-9.889-6.355c-0.727-0.467-1.677-0.348-2.271,0.285l-8.773,9.318L31.04,33.158   c-0.647-0.583-1.607-0.619-2.293-0.087L8.172,48.994V26.717h65.335V49.277z M80.171,66.021V23.487l10.281,2.74L80.171,66.021z    M68.347,57.862c0.851,0.534,1.97,0.261,2.492-0.609c0.524-0.87,0.256-2.011-0.597-2.544l-5.65-3.539   c-0.69-0.437-1.583-0.347-2.179,0.216l-6.852,6.46c-0.731,0.694-0.779,1.863-0.1,2.616c0.358,0.393,0.844,0.593,1.33,0.593   c0.441,0,0.882-0.159,1.23-0.491l5.844-5.51L68.347,57.862z"/></g><text x="0" y="115" fill="#000000" font-size="5px" font-weight="bold" font-family="'Helvetica Neue', Helvetica, Arial-Unicode, Arial, Sans-serif"></text><text x="0" y="120" fill="#000000" font-size="5px" font-weight="bold" font-family="'Helvetica Neue', Helvetica, Arial-Unicode, Arial, Sans-serif"></text></svg>