<svg xmlns="http://www.w3.org/2000/svg" xmlns:xlink="http://www.w3.org/1999/xlink" version="1.1" x="0px" y="0px" viewBox="0 0 100 125" style="enable-background:new 0 0 100 100;" xml:space="preserve" fill="#ffffff"><g><g><path d="M42.827,53.407C41.607,53.145,40.344,53,39.046,53H29.75c-9.892,0-17.912,8.008-17.912,17.887l0.042,2.115    c0,2.76,2.241,4.998,5.005,4.998h9.166C26.501,67.009,33.268,57.639,42.827,53.407z"/><path d="M87.947,79.159c0-12.25-9.944-22.18-22.21-22.18H54.21c-12.266,0-22.21,9.93-22.21,22.18l0.053,2.623    c0,3.422,2.778,6.197,6.206,6.197h43.536c3.427,0,6.206-2.775,6.206-6.197L87.947,79.159z"/><path d="M60,26c3.188,0,5.886,2.112,6.756,5H77c-0.999-8.445-8.223-15-17-15s-16.001,6.555-17,15h10.244    C54.114,28.112,56.812,26,60,26z"/><path d="M60,50c8.777,0,16.001-6.555,17-15H66.756c-0.87,2.887-3.568,5-6.756,5s-5.886-2.113-6.756-5H43    C43.999,43.445,51.223,50,60,50z"/><ellipse cx="60" cy="33" rx="3.023" ry="3"/><path d="M34.5,26.892c1.144,0,2.2,0.353,3.092,0.934c0.621-2.698,1.713-5.215,3.191-7.458c-1.884-0.963-4.017-1.512-6.282-1.512    c-7.053,0-12.858,5.268-13.661,12.054h8.232C29.77,28.589,31.938,26.892,34.5,26.892z"/><path d="M34.5,46.177c2.079,0,4.043-0.468,5.809-1.287c-1.387-2.291-2.38-4.846-2.898-7.569c-0.853,0.512-1.844,0.82-2.911,0.82    c-2.562,0-4.73-1.698-5.429-4.018h-8.232C21.642,40.91,27.447,46.177,34.5,46.177z"/><ellipse cx="34.5" cy="32.517" rx="2.429" ry="2.411"/></g></g><text x="0" y="115" fill="#000000" font-size="5px" font-weight="bold" font-family="'Helvetica Neue', Helvetica, Arial-Unicode, Arial, Sans-serif"></text><text x="0" y="120" fill="#000000" font-size="5px" font-weight="bold" font-family="'Helvetica Neue', Helvetica, Arial-Unicode, Arial, Sans-serif"></text></svg>