<svg xmlns="http://www.w3.org/2000/svg" xmlns:xlink="http://www.w3.org/1999/xlink" version="1.1" x="0px" y="0px" viewBox="0 0 91 113.75" style="enable-background:new 0 0 91 91;" xml:space="preserve"><g>
	<path d="M16,21.5c0,0.9,0.8,1.7,1.7,1.7h63.7v40.5c0,0.9,0.8,1.7,1.7,1.7s1.7-0.8,1.7-1.7V21.5c0-0.9-0.8-1.7-1.7-1.7H17.7   C16.7,19.8,16,20.6,16,21.5z" fill="#424242"/>
<path d="M42.2,64.7c8,0,14.5-6.5,14.5-14.5s-6.5-14.5-14.5-14.5c-8,0-14.5,6.5-14.5,14.5S34.3,64.7,42.2,64.7z M45,52.4L38.3,51   L38,50.9c-2.1-1.1-3.2-2.5-3.2-4.1v-0.2c0-2.8,2.6-5,5.8-5h0.2v-1.8h3.4v1.9c3.1,0.1,5.5,2.3,5.5,5h-3.4c0-0.9-1.1-1.6-2.4-1.6   h-3.3c-1.3,0-2.4,0.8-2.4,1.6v0.2c0,0,0.1,0.4,1.2,1l5.8,1.2l0.6,0.1l0.3,0.1l0.2,0.1c2.7,1.4,3.3,3,3.3,4.1v0.2   c0,2.7-2.4,4.9-5.5,5v2h-3.4v-2h-0.2c-3.2,0-5.8-2.3-5.8-5h3.4c0,0.9,1.1,1.6,2.4,1.6h3.3c1.3,0,2.4-0.8,2.4-1.6v-0.2   C46.3,53.3,46,52.9,45,52.4z" fill="#EF5350"/>
<path d="M9.5,72.9H75c0.9,0,1.7-0.8,1.7-1.7V29c0-0.9-0.8-1.7-1.7-1.7H9.5c-0.9,0-1.7,0.8-1.7,1.7v42.2C7.8,72.1,8.6,72.9,9.5,72.9   z M73.3,30.7v6.7c-3.3-0.7-6-3.3-6.7-6.7H73.3z M73.3,62.9v6.7h-6.7C67.3,66.2,69.9,63.5,73.3,62.9z M42.2,32.3   c9.9,0,17.9,8,17.9,17.9s-8,17.9-17.9,17.9s-17.9-8-17.9-17.9S32.4,32.3,42.2,32.3z M11.2,30.7h6.7c-0.7,3.3-3.3,6-6.7,6.7V30.7z    M11.2,62.9c3.3,0.7,6,3.3,6.7,6.7h-6.7V62.9z" fill="#424242"/></g></svg>