<svg xmlns="http://www.w3.org/2000/svg" xmlns:xlink="http://www.w3.org/1999/xlink" version="1.1" x="0px" y="0px" viewBox="0 0 100 125" style="enable-background:new 0 0 100 100;" xml:space="preserve">
	<path d="M49.7,6c-10.8,0-19.6,8.8-19.6,19.6s8.8,19.6,19.6,19.6s19.6-8.8,19.6-19.6S60.5,6,49.7,6z" fill="#424242"/>
	<path d="M67.8,52.3H31.6c-9.3,0-17.1,7.5-17.1,17.1v15.8H33c-0.7-1.9-1.2-4-1.2-6.1c0-9.5,8-17.3,17.8-17.3S67.5,69.5,67.5,79  c0,2.2-0.4,4.2-1.2,6.1h18.5V69.3C84.8,59.8,77.3,52.3,67.8,52.3z" fill="#424242"/>
	<path d="M50.8,84.1c0.6-0.4,1.1-1.1,1.1-1.8s-0.4-1.5-1.1-1.8V84.1z" fill="#EF5350" />
	<path d="M47.6,75.8c0,0.8,0.4,1.4,1,1.8V74C48,74.4,47.6,75.1,47.6,75.8z" fill="#EF5350"/>
	<path d="M49.7,64.9c-7.8,0-14.2,6.3-14.2,14.2c0,7.8,6.3,14.2,14.2,14.2S63.8,86.9,63.8,79C63.8,71.2,57.5,64.9,49.7,64.9z   M40.6,80.5c-0.8,0-1.5-0.7-1.5-1.5s0.7-1.5,1.5-1.5s1.5,0.7,1.5,1.5C42.1,79.9,41.4,80.5,40.6,80.5z M54.3,75.3  c-0.4,0.4-1.1,0.4-1.6,0c-0.3-0.3-1.1-1-2-1.3v4.2c1.9,0.5,3.3,2.2,3.3,4.2s-1.4,3.7-3.3,4.2v0.6c0,0.6-0.5,1.1-1.1,1.1  s-1.1-0.5-1.1-1.1v-0.7c-1.9-0.6-3.4-2.3-3.6-2.5c-0.4-0.5-0.3-1.2,0.1-1.6c0.5-0.4,1.2-0.3,1.6,0.1c0.3,0.3,1.1,1.1,1.9,1.6V80  c-1.8-0.5-3.2-2.2-3.2-4.2s1.4-3.7,3.2-4.2V71c0-0.6,0.5-1.1,1.1-1.1s1.1,0.5,1.1,1.1v0.6c1.9,0.4,3.4,1.9,3.5,2.1  C54.7,74.1,54.7,74.8,54.3,75.3z M58.7,80.5c-0.8,0-1.5-0.7-1.5-1.5s0.7-1.5,1.5-1.5s1.5,0.7,1.5,1.5S59.6,80.5,58.7,80.5z" fill="#EF5350"/></svg>