<svg xmlns="http://www.w3.org/2000/svg" xmlns:xlink="http://www.w3.org/1999/xlink" version="1.1" x="0px" y="0px" viewBox="0 0 100 125" style="enable-background:new 0 0 100 100;" xml:space="preserve">
	<path d="M44.4,5.2c-10.8,0-19.6,8.8-19.6,19.6s8.8,19.6,19.6,19.6S64,35.6,64,24.8S55.2,5.2,44.4,5.2z" fill="#424242"/>
	<path d="M62.5,51.4H26.3c-9.3,0-17.1,7.5-17.1,17.1v15.8h28.6l1.5-6.4l8.6-6.1l1.2,4.9l-10.7,7.6h4.3l7.1-5l1.2,5  h5.6v-1.6l-1.9-3.3c-0.2-0.4-0.3-0.8-0.3-1.2s0.1-0.8,0.3-1.2l1.9-3.3v-4c0-0.9,0.5-1.7,1.2-2.1l3.4-2l1.9-3.3  c0.4-0.7,1.2-1.2,2.1-1.2h3.9l3.4-1.9c0.7-0.4,1.7-0.4,2.4,0l2.9,1.7C75,55.2,69.3,51.4,62.5,51.4z M49.4,61.7l-3,3.4l1,4l-7.1,5  l2.2-9.1l-3-3.4c-0.1-0.1-0.1-0.3-0.1-0.4l1.8-4.4c0.1-0.1,0.2-0.2,0.3-0.2h5.7c0.1,0,0.3,0.1,0.3,0.2l1.9,4.4  C49.5,61.5,49.5,61.6,49.4,61.7z" fill="#424242"/>
	<path d="M90.5,77.2l-1.7-2.9V71c0-0.7-0.4-1.4-1-1.8L85,67.6l-1.7-2.9c-0.4-0.6-1-1-1.8-1h-3.3l-2.9-1.6  c-0.6-0.4-1.4-0.4-2,0l-2.9,1.6h-3.3c-0.7,0-1.4,0.4-1.8,1l-1.6,2.8l-2.9,1.7c-0.6,0.4-1,1-1,1.8v3.4l-1.6,2.8  c-0.2,0.3-0.3,0.7-0.3,1c0,0.4,0.1,0.7,0.3,1l1.6,2.8v3.4c0,0.7,0.4,1.4,1,1.8l2.9,1.7l1.6,2.8c0.4,0.6,1,1,1.8,1h3.3l2.9,1.6  c0.3,0.2,0.7,0.3,1,0.3s0.7-0.1,1-0.3l2.9-1.6h3.3c0.7,0,1.4-0.4,1.8-1l1.7-2.9l2.8-1.6c0.6-0.4,1-1,1-1.8v-3.2l1.7-2.9  C90.8,78.6,90.8,77.8,90.5,77.2z M74.4,86.1h-6v-3h6V86.1z M80.5,80.8h-12v-3h12V80.8z M82.8,75.2H68.4v-3h14.4V75.2z" fill="#EF5350"/></svg>