<svg xmlns="http://www.w3.org/2000/svg" data-name="Layer 1" viewBox="0 0 512 640" x="0px" y="0px"><title>login</title><path d="M512,255.86c-1.2,126.6-94.89,233.11-223.39,253C182.88,525.21,75.3,476.79,20.41,388.15c-10.44-16.86-7.79-33.11,6.85-42,14.18-8.62,31.44-3.28,41.9,13,46.21,71.76,130.16,109.49,211.45,95,87.71-15.62,151.82-75.9,170-159.89C474.87,182.3,389.6,68.7,271.54,57.28,184.24,48.84,117,82.22,69.26,152.92c-11,16.23-27.53,21.84-41.81,13.36-14.6-8.67-17.48-25.43-7.21-42C75.73,34.77,185.63-14.45,289.37,3.76c113.53,19.93,198.73,101,218.05,207.92C510.05,226.22,510.53,241.12,512,255.86Z" fill="#FFFFFF" /><path d="M192.15,297.07c-48.84.44-92.75,1.18-136.67,1.13-36.7,0-57.85-15.62-55.32-42.11,3.13-32.91,25.64-41,53.7-41,44,0.08,88-.67,137.44-1.11-0.22-22.53-1.07-43.05-.46-63.52,0.89-30.09,11.92-37.62,34.54-21.57,49.21,34.91,97.37,71.43,145.77,107.57,15.24,11.38,15.68,24,.37,35.83-48.77,37.57-97.31,75.49-146.78,112.05-20.5,15.15-30.84,4.13-31.8-18.85C192.08,344.6,192.41,323.64,192.15,297.07Z" fill="#FFFFFF"/><text x="0" y="527" fill="#000000" font-size="5px" font-weight="bold" font-family="'Helvetica Neue', Helvetica, Arial-Unicode, Arial, Sans-serif"></text><text x="0" y="532" fill="#000000" font-size="5px" font-weight="bold" font-family="'Helvetica Neue', Helvetica, Arial-Unicode, Arial, Sans-serif"></text></svg>