<svg xmlns="http://www.w3.org/2000/svg" xmlns:xlink="http://www.w3.org/1999/xlink" version="1.1" x="0px" y="0px" viewBox="0 0 27 38.75" style="enable-background:new 0 0 27 31;" xml:space="preserve"><g>
	<path d="M14,21.075v2.002c5.254,0.39,8,2.235,8,2.923c0,0.771-3.438,3-10,3S2,26.771,2,26c0-0.688,2.746-2.533,8-2.923v-2.002   C4.327,21.473,0,23.522,0,26c0,2.762,5.373,5,12,5s12-2.238,12-5C24,23.522,19.673,21.473,14,21.075z" fill="#EF5350"/>
	<path d="M12,27c0.553,0,1-0.447,1-1V1c0-0.553-0.447-1-1-1s-1,0.447-1,1v25C11,26.553,11.447,27,12,27z" fill="#424242"/>
	<path d="M26.125,1.825l-2.341-0.469c-1.156-0.23-2.357-0.07-3.412,0.457c-1.493,0.747-3.251,0.747-4.744,0L14,1v10l1.628,0.813   c1.493,0.747,3.251,0.747,4.744,0c1.055-0.527,2.256-0.688,3.412-0.457l1.914,0.383c0.319,0.064,0.651-0.019,0.903-0.226   C26.854,11.308,27,10.998,27,10.673v-7.78C27,2.373,26.634,1.927,26.125,1.825z" fill="#424242"/></g></svg>