<svg xmlns="http://www.w3.org/2000/svg" xmlns:xlink="http://www.w3.org/1999/xlink" version="1.2" baseProfile="tiny" x="0px" y="0px" viewBox="0 0 100 125" xml:space="preserve" fill="#424242"><path d="M75,47.5h5C80,32.336,67.664,20,52.5,20v5C64.907,25,75,35.093,75,47.5z" fill="#EF5350"/><path d="M87.5,65l-20-7.5L60,65c-9.902-6.601-18.399-15.098-25-25l7.5-7.5l-7.5-20h-1.398c-5.507,0-10.789,2.188-14.684,6.082h0   c-4.109,4.109-6.418,9.683-6.418,15.494v0c0,3.88,1.03,7.69,2.985,11.041C25,61.428,38.572,75,54.883,84.515   c3.351,1.955,7.161,2.985,11.041,2.985c5.811,0,11.385-2.309,15.494-6.418h0c3.894-3.894,6.082-9.176,6.082-14.684V65z"/><path d="M52.5,10v5C70.42,15,85,29.58,85,47.5h5C90,26.822,73.178,10,52.5,10z" fill="#EF5350"/><text x="0" y="115" fill="#000000" font-size="5px" font-weight="bold" font-family="'Helvetica Neue', Helvetica, Arial-Unicode, Arial, Sans-serif"></text><text x="0" y="120" fill="#000000" font-size="5px" font-weight="bold" font-family="'Helvetica Neue', Helvetica, Arial-Unicode, Arial, Sans-serif"></text></svg>