<svg xmlns="http://www.w3.org/2000/svg" xmlns:xlink="http://www.w3.org/1999/xlink" version="1.1" x="0px" y="0px" viewBox="0 0 20 25" enable-background="new 0 0 20 20" xml:space="preserve"><g><path fill="#616161" d="M19.1,5.9c-0.8-0.8-2.1-1-3.1-0.7V2h-4V0H4v2H0v18h16v-6.8l3.1-3.1C20.3,9,20.3,7,19.1,5.9z M6,2h4v2H6V2z    M14,18H2V4h2v2h8V4h2v2.8l-2,2V8H4v2h6.8L9,11.8V16h4.2l0.8-0.8V18z M17.7,8.7L12.4,14H11v-1.4l5.3-5.3c0.4-0.4,1-0.4,1.4,0   C18.1,7.7,18.1,8.3,17.7,8.7z"/><rect x="4" y="12" fill="#616161" width="3" height="2"/></g></svg>