<svg xmlns:dc="http://purl.org/dc/elements/1.1/" xmlns:cc="http://creativecommons.org/ns#" xmlns:rdf="http://www.w3.org/1999/02/22-rdf-syntax-ns#" xmlns:svg="http://www.w3.org/2000/svg" xmlns="http://www.w3.org/2000/svg" version="1.1" viewBox="0 0 47.999997 60" x="0px" y="0px">
	<path d="m 19.999996,1e-7 c -1.108,0 -2,0.892 -2,2 0,1.108 0.892,2 2,2 l 8,0 c 1.108,0 2,-0.892 2,-2 0,-1.108 -0.892,-2.000000000000001 -2,-2.000000000000001 l -8,0 z m -11.0000001,2 c -2.1987,0 -3.9999996,1.8013 -3.9999996,4 l 0,37.9999999 c 0,2.1987 1.8012996,4 3.9999996,4 l 30.0000001,0 c 2.1987,0 4,-1.8013 4,-4 l 0,-37.9999999 c 0,-2.1987 -1.8013,-4 -4,-4 l -6.1055,0 a 1,1 0 0 0 -0.9902,0.86914 c -0.4008,1.78391 -2.0046,3.13086 -3.9043,3.13086 l -8,0 c -1.8984,0 -3.5021,-1.3488 -3.9043,-3.13086 a 1,1 0 0 0 -0.9902,-0.86914 l -6.1055001,0 z M 21.033196,16.00195 c 0.2358,0.008 0.4613,0.0982 0.6367,0.25586 0.41,0.36948 0.4436,1.00166 0.074,1.41211 l -4.5,5 c -0.3547,0.39421 -0.9554,0.44306 -1.3691,0.11133 l -2.5,-2 c -0.4317,-0.34505 -0.502,-0.97487 -0.1562,-1.40625 0.3448,-0.4317 0.9748,-0.50167 1.4062,-0.15625 l 1.7637,1.41016 3.8691,-4.29688 c 0.1972,-0.21888 0.4809,-0.34008 0.7754,-0.33008 z m 4.9668,0.99805 8,0 c 0.5523,0 1,0.44772 1,1 0,0.55228 -0.4477,1 -1,1 l -8,0 c -0.5523,0 -1,-0.44772 -1,-1 0,-0.55228 0.4477,-1 1,-1 z m 0,4 4,0 c 0.5523,0 1,0.44772 1,1 0,0.55228 -0.4477,1 -1,1 l -4,0 c -0.5523,0 -1,-0.44772 -1,-1 0,-0.55228 0.4477,-1 1,-1 z m -6.0156,10 c 0.2696,-0.004 0.5314,0.10076 0.7226,0.29102 0.3924,0.3905 0.3904,1.0255 0,1.41601 L 18.414096,35 l 2.289,2.29688 c 0.3904,0.39051 0.3904,1.02356 0,1.41406 -0.3916,0.38916 -1.0246,0.38561 -1.414,-0.006 l -2.2911,-2.29102 -2.291,2.29102 c -0.3894,0.39159 -1.0224,0.39328 -1.414,0.004 -0.3924,-0.3905 -0.3904,-1.0255 0,-1.41601 l 2.2929,-2.29297 -2.2832,-2.29297 c -0.3904,-0.39051 -0.3904,-1.02355 0,-1.41406 0.3908,-0.3883 1.0224,-0.38574 1.4121,0.004 l 2.2891,2.28906 2.291,-2.29102 c 0.1829,-0.18402 0.4301,-0.28992 0.6895,-0.29492 z m 6.0156,1 8,0 c 0.5523,0 1,0.44772 1,1 0,0.55228 -0.4477,1 -1,1 l -8,0 c -0.5523,0 -1,-0.44772 -1,-1 0,-0.55228 0.4477,-1 1,-1 z m 0,4 4,0 c 0.5523,0 1,0.44772 1,1 0,0.55228 -0.4477,1 -1,1 l -4,0 c -0.5523,0 -1,-0.44772 -1,-1 0,-0.55228 0.4477,-1 1,-1 z" style="color:#616161;font-style:normal;font-variant:normal;font-weight:normal;font-stretch:normal;font-size:medium;line-height:normal;font-family:sans-serif;text-indent:0;text-align:start;text-decoration:none;text-decoration-line:none;text-decoration-style:solid;text-decoration-color:#616161;letter-spacing:normal;word-spacing:normal;text-transform:none;direction:ltr;block-progression:tb;writing-mode:lr-tb;baseline-shift:baseline;text-anchor:start;white-space:normal;clip-rule:nonzero;display:inline;overflow:visible;visibility:visible;opacity:1;isolation:auto;mix-blend-mode:normal;color-interpolation:sRGB;color-interpolation-filters:linearRGB;solid-color:#616161;solid-opacity:1;fill:#616161;fill-opacity:1;fill-rule:evenodd;stroke:none;stroke-width:1.99999988;stroke-linecap:butt;stroke-linejoin:miter;stroke-miterlimit:4;stroke-dasharray:none;stroke-dashoffset:0;stroke-opacity:1;marker:none;color-rendering:auto;image-rendering:auto;shape-rendering:auto;text-rendering:auto;enable-background:accumulate" /></svg>