<svg xmlns="http://www.w3.org/2000/svg" xmlns:xlink="http://www.w3.org/1999/xlink" version="1.1" x="0px" y="0px" viewBox="0 0 100 125" enable-background="new 0 0 100 100" xml:space="preserve"><g>
	<path fill-rule="evenodd" clip-rule="evenodd" d="M66.757,73.87c0,2.234-1.811,4.046-4.046,4.046H19.546   c-2.234,0-4.046-1.812-4.046-4.046V53.55l-3.179-3.179c-1.445-1.445-1.445-3.797,0-5.242l3.179-3.178V30.706   c0-2.235,1.812-4.047,4.046-4.047h42.837L75.5,13.542c-1.565-0.672-3.289-1.046-5.1-1.046H14.286   c-7.152,0-12.95,5.797-12.95,12.949v53.686c0,7.15,5.797,12.949,12.95,12.949h53.686c7.152,0,12.949-5.799,12.949-12.949V40.617   L66.757,54.781V73.87z" fill="#616161"/>
<path fill-rule="evenodd" clip-rule="evenodd" d="M97.508,18.791L86.5,7.782c-0.658-0.657-1.724-0.657-2.381,0L41.744,50.157   L27.139,35.553c-0.657-0.658-1.723-0.659-2.38,0L13.751,46.561c-0.658,0.656-0.658,1.723,0,2.381l26.612,26.61   c0.379,0.381,0.896,0.533,1.39,0.475c0.49,0.053,0.998-0.1,1.375-0.477l54.379-54.379C98.164,20.513,98.165,19.447,97.508,18.791z" fill="#616161"/></g></svg>