<svg xmlns="http://www.w3.org/2000/svg" xmlns:xlink="http://www.w3.org/1999/xlink" version="1.1" x="0px" y="0px" viewBox="0 0 100 125" style="enable-background:new 0 0 100 100;" xml:space="preserve">
	<path d="M37.5,17.5H65c2.761,0,5-2.239,5-5s-2.239-5-5-5H37.5c-2.761,0-5,2.239-5,5S34.739,17.5,37.5,17.5z" fill="#616161"/>
	<path d="M80,12.5h-5c0,5.523-4.477,10-10,10H37.5c-5.523,0-10-4.477-10-10H20c-2.761,0-5,2.239-5,5v70c0,2.761,2.239,5,5,5h60  c2.761,0,5-2.239,5-5v-70C85,14.739,82.761,12.5,80,12.5z M52.5,40h15v5h-15V40z M52.5,60h15v5h-15V60z M30,87.5l-10-10l5-5l5,5  l10-10l5,5L30,87.5z M30,67.5l-10-10l5-5l5,5l10-10l5,5L30,67.5z M30,47.5l-10-10l5-5l5,5l10-10l5,5L30,47.5z M67.5,85h-15v-5h15V85  z M77.5,75h-25v-5h25V75z M77.5,55h-25v-5h25V55z M77.5,35h-25v-5h25V35z" fill="#616161"/></svg>