<svg xmlns="http://www.w3.org/2000/svg" xmlns:xlink="http://www.w3.org/1999/xlink" viewBox="0 0 16 21.25" version="1.1" x="0px" y="0px"><title>007-favourite clipboard</title><desc>Created with Sketch.</desc><g stroke="none" stroke-width="1" fill="none" fill-rule="evenodd"><g fill="#616161"><polygon points="15.5 11.5217 12.785 11.1267 11.571 8.6667 10.357 11.1267 7.642 11.5217 9.606 13.4367 9.143 16.1407 11.571 14.8637 13.999 16.1407 13.535 13.4367"/><polygon points="2.5 3.1406 3.5 3.1406 3.5 1.1406 0.5 1.1406 0.5 16.1406 7.5 16.1406 7.5 14.1406 2.5 14.1406"/><polygon points="12.5 7.1411 14.5 7.1401 14.5 1.1411 11.5 1.1411 11.5 3.1411 12.5 3.1411"/><polygon points="4.5 7.141 10.5 7.141 10.5 6.141 4.5 6.141"/><polygon points="4.5 10.141 8.5 10.141 8.5 9.141 4.5 9.141"/><path d="M5.5,3.141 L9.5,3.141 L9.5,1.141 L5.5,1.141 L5.5,3.141 Z M4.5,4.141 L10.5,4.141 L10.5,0.141 L4.5,0.141 L4.5,4.141 Z"/></g></g></svg>