<svg xmlns="http://www.w3.org/2000/svg" xmlns:xlink="http://www.w3.org/1999/xlink" version="1.1" x="0px" y="0px" viewBox="0 0 100 125" enable-background="new 0 0 100 100" xml:space="preserve"><symbol viewBox="-27.299 -39.024 54.598 78.047">
	</symbol>
	<g display="none">
	</g><g>
	<path d="M61.905,76.643c0-10.354,8.271-18.793,18.551-19.106c0.196-0.006,0.387-0.03,0.584-0.03c2.135,0,4.182,0.367,6.101,1.015   V35.14h-6.686h-68.77H5v51.658h59.851c-1.266-2.011-2.17-4.266-2.615-6.686C62.028,78.986,61.905,77.829,61.905,76.643z    M58.657,45.398h11.955v10.898H58.657V45.398z M40.093,45.398h11.955v10.898H40.093V45.398z M40.093,63.896h11.955v10.898H40.093   V63.896z M21.53,45.398h11.956v10.898H21.53V45.398z M21.53,63.896h11.956v10.898H21.53V63.896z" fill="#616161"/>
	<polygon points="80.456,30.365 87.142,30.365 87.142,15.163 71.898,15.163 71.898,9.397 68.555,9.397 65.212,9.397 65.212,15.163    49.414,15.163 49.414,9.397 46.071,9.397 42.728,9.397 42.728,15.163 26.93,15.163 26.93,9.397 23.587,9.397 20.245,9.397    20.245,15.163 5,15.163 5,30.365 11.686,30.365  " fill="#616161"/>
	<path d="M81.04,62.684c-7.698,0-13.96,6.262-13.96,13.96s6.262,13.96,13.96,13.96S95,84.341,95,76.643S88.738,62.684,81.04,62.684z    M88.754,79.231H78.452V68.478h5.176v5.578h5.126V79.231z" fill="#616161"/>
</g></svg>