<svg xmlns:dc="http://purl.org/dc/elements/1.1/" xmlns:cc="http://creativecommons.org/ns#" xmlns:rdf="http://www.w3.org/1999/02/22-rdf-syntax-ns#" xmlns:svg="http://www.w3.org/2000/svg" xmlns="http://www.w3.org/2000/svg" xmlns:sodipodi="http://sodipodi.sourceforge.net/DTD/sodipodi-0.dtd" xmlns:inkscape="http://www.inkscape.org/namespaces/inkscape" viewBox="0 0 447.58201 413.2552375" version="1.1" x="0px" y="0px"><g transform="translate(-165.63749,-442.84369)"><path style="" d="m 453.26649,442.84539 -79.128,38.9978 36.975,16.4247 c 24.44,-3.6059 44.385,1.338 50.972,14.9679 1.12,2.7346 1.896,5.4711 2.02,8.4951 l 67.397,30.0171 0,2.3443 81.717,-40.3733 -159.955,-70.8753 z m -95.796,47.1698 -87.462,43.2052 159.552,71.0372 0,117.8839 75.002,-36.8138 12.622,-6.2299 0,-73.7071 0,-44.3383 -12.622,-5.5823 -75.002,-33.4151 -72.09,-32.0398 z m -104.29,51.5384 -87.543,43.0432 160.037,70.876 87.058,-42.8817 -34.791,-15.5343 c -30.821,8.1607 -57.627,4.0595 -65.374,-12.1358 -2.443,-5.1784 -2.87,-11.099 -1.13,-17.396 l -58.256,-25.9714 z m 335.042,0.4156 -56.718,27.9942 0,23.3822 81.637,-40.2923 -24.919,-11.0841 z m 0,39.3211 -56.718,27.9946 0,23.3822 81.637,-40.2924 -24.919,-11.0844 z m -397.341,30.179 -25.244,12.4596 160.037,70.8761 89.485,-44.1761 0,-23.4632 -89.242,44.0948 -135.036,-59.7912 z m 397.179,9.3044 -56.556,27.9942 0,23.3016 81.637,-40.2923 -25.081,-11.0035 z m -397.179,30.017 -25.244,12.46 160.037,70.8758 89.485,-44.1761 0,-23.3825 -89.242,44.0141 -135.036,-59.7913 z m 0.182,39.4025 -25.406,12.5406 160.037,70.7141 89.485,-44.257 0,-23.3016 -89.242,44.0142 -134.874,-59.7103 z" fill="#616161"/></g></svg>