<svg xmlns="http://www.w3.org/2000/svg" xmlns:xlink="http://www.w3.org/1999/xlink" version="1.1" x="0px" y="0px" viewBox="0 0 100 125" enable-background="new 0 0 100 100" xml:space="preserve"><g><g><path fill="#616161" d="M84.406,36.305c0,7.871-6.38,18.733-14.25,18.733S55.905,44.176,55.905,36.305s6.38-14.251,14.251-14.251    S84.406,28.435,84.406,36.305z"/><path fill="#616161" d="M80.929,51.147c-2.876,3.694-6.645,6.305-10.773,6.305c-4.129,0-7.897-2.611-10.774-6.305    C50.188,54.902,43.78,62.724,43.78,68.052c0,7.236,11.809,13.102,26.375,13.102s26.375-5.866,26.375-13.102    C96.531,62.724,90.124,54.902,80.929,51.147z"/></g><g><path fill="#616161" d="M52.504,25.267c0,9.808-7.95,23.344-17.758,23.344S16.988,35.075,16.988,25.267S24.938,7.509,34.746,7.509    S52.504,15.459,52.504,25.267z"/><g><path fill="#616161" d="M40.673,68.276c0-5.91,7.056-14.558,17.204-18.792c-2.792-2.243-6.072-4.238-9.706-5.722     c-3.583,4.603-8.28,7.857-13.425,7.857c-5.146,0-9.841-3.254-13.425-7.857C9.864,48.441,1.879,58.188,1.879,64.828     c0,9.017,14.715,16.326,32.867,16.326c5.691,0,11.043-0.719,15.711-1.983C44.452,76.49,40.673,72.603,40.673,68.276z"/></g></g></g></svg>