<svg xmlns="http://www.w3.org/2000/svg" xmlns:xlink="http://www.w3.org/1999/xlink" version="1.1" x="0px" y="0px" viewBox="0 0 64 80" enable-background="new 0 0 64 64" xml:space="preserve"><g>
	<circle cx="32" cy="14.796" r="12.116" fill="#616161"/><path d="M11.317,49.535c0.266-0.379,0.291-0.391,0.671-0.74c0.708-0.65,1.139-0.963,1.07-2.072   c-0.044-0.707-0.646-1.393-0.552-1.938c0.093-0.539,0.507-0.33,0.442-1.027c-0.041-0.445-0.279-0.807-0.594-1.115   c-0.282-0.277-0.86-0.385-1.071-0.732c-0.188-0.309,0.026-0.771-0.054-1.115c-0.235-0.998-1.035-1.43-1.922-1.656   c-1.105-0.279-1.329-0.27-1.306-1.393c0.02-0.928,0.006-1.094-0.333-1.912l-0.277-0.355c-0.73-0.092-1.451,0.539-1.922,1.043   c-1.049,1.127-2.27,2.551-2.939,3.926c-0.71,1.461-0.612,3.498-0.262,5.055c0.735,3.266,4.453,8.924,8.242,5.123   C10.842,50.293,11.052,49.91,11.317,49.535z" fill="#616161"/><path d="M51.928,50.486l-0.193-0.285c-0.172-0.246-0.172-0.246-0.506-0.553L51.1,49.531c-0.693-0.633-1.412-1.287-1.314-2.881   c0.033-0.541,0.236-1,0.4-1.371c0.033-0.074,0.074-0.172,0.109-0.234c-0.248-0.283-0.463-0.701-0.398-1.395   c0.064-0.67,0.379-1.287,0.938-1.836c0.25-0.246,0.537-0.389,0.766-0.502c0.004-0.004,0.008-0.006,0.012-0.006   c-0.021-0.213-0.039-0.482,0.031-0.777c0.301-1.277,1.23-2.123,2.764-2.514c0,0,0.225-0.053,0.354-0.086V23.514L32,30.241   L9.24,23.514V37.93c0.129,0.033,0.353,0.086,0.353,0.086c1.534,0.391,2.464,1.236,2.765,2.514c0.069,0.295,0.053,0.564,0.031,0.777   c0.004,0,0.008,0.002,0.012,0.006c0.229,0.113,0.516,0.256,0.766,0.502c0.56,0.549,0.874,1.166,0.938,1.836   c0.063,0.693-0.15,1.111-0.398,1.395c0.034,0.063,0.077,0.16,0.11,0.234c0.162,0.371,0.366,0.83,0.399,1.371   c0.098,1.594-0.62,2.248-1.314,2.881l-0.129,0.117c-0.334,0.307-0.334,0.307-0.506,0.553l-0.192,0.285   c-0.197,0.297-0.42,0.635-0.741,0.955c-0.661,0.664-1.363,1.1-2.092,1.352v2.209L32,61.32l0,0l22.76-6.318v-2.209   c-0.729-0.252-1.43-0.688-2.092-1.352C52.346,51.121,52.123,50.783,51.928,50.486z" fill="#616161"/><path d="M61.469,40.447c-0.67-1.375-1.891-2.799-2.939-3.926c-0.471-0.504-1.191-1.135-1.922-1.043l-0.277,0.355   c-0.34,0.818-0.354,0.984-0.334,1.912c0.023,1.123-0.199,1.113-1.305,1.393c-0.887,0.227-1.686,0.658-1.922,1.656   c-0.08,0.344,0.135,0.807-0.055,1.115c-0.211,0.348-0.787,0.455-1.07,0.732c-0.314,0.309-0.553,0.67-0.594,1.115   c-0.064,0.697,0.35,0.488,0.441,1.027c0.094,0.545-0.506,1.23-0.551,1.938c-0.068,1.109,0.363,1.422,1.07,2.072   c0.381,0.35,0.404,0.361,0.672,0.74c0.264,0.375,0.473,0.758,0.805,1.09c3.789,3.801,7.506-1.857,8.242-5.123   C62.082,43.945,62.18,41.908,61.469,40.447z" fill="#616161"/></g></svg>