<svg xmlns="http://www.w3.org/2000/svg" data-name="Layer 1" viewBox="0 0 100 125" x="0px" y="0px"><title>all</title><g><g><g data-name="Zoom In"><g data-name="Calendar"><g><g><g><g><g><g><g><g><g data-name="Play - Orange"><g data-name="Arrow Right - Orange"><g>
<path fill="#616161" d="M86.29,37.3l-1.7-4.12c5.83-13.45,5.45-13.85,4.31-15l-7.45-7.43-0.74-.64H79.85c-0.46,0-1.81,0-13.14,5.24l-4.17-1.72C57.15,0,56.6,0,55,0H44.51c-1.58,0-2.19,0-7.18,13.68L33.18,15.4c-7.65-3.3-12.14-5-13.35-5l-1,0-8,8C9.6,19.65,9.17,20.06,15.34,33.3l-1.7,4.11C0,42.79,0,43.31,0,45V55.48c0,1.65,0,2.23,13.69,7.24l1.7,4.1c-5.83,13.45-5.44,13.85-4.31,15l7.45,7.44,0.74,0.65h0.87c0.45,0,1.79,0,13.13-5.25l4.16,1.73C42.82,100,43.37,100,45,100H55.47c1.61,0,2.18,0,7.19-13.67l4.17-1.72c7.65,3.3,12.12,5,13.33,5l1,0,8.08-8.07c1.15-1.18,1.55-1.59-4.58-14.78l1.69-4.11C100,57.21,100,56.64,100,55V44.52C100,42.87,100,42.29,86.29,37.3ZM50,67.49A17.5,17.5,0,1,1,67.46,50,17.52,17.52,0,0,1,50,67.49Z"/></g></g></g></g></g></g></g></g></g></g></g></g></g></g></g></svg>