<svg xmlns="http://www.w3.org/2000/svg" xmlns:xlink="http://www.w3.org/1999/xlink" version="1.0" x="0px" y="0px" viewBox="0 0 100.297 125" enable-background="new 0 0 100.297 100" xml:space="preserve"><path fill="#424242" d="M64.336,24.382c1.331,0,2.418-1.085,2.418-2.417c0-1.334-1.087-2.419-2.418-2.419  c-1.334,0-2.417,1.085-2.417,2.419C61.919,23.297,63.002,24.382,64.336,24.382z"/>
<path fill="#424242" d="M25.371,24.382c1.333,0,2.418-1.085,2.418-2.417c0-1.334-1.085-2.419-2.418-2.419  c-1.333,0-2.418,1.085-2.418,2.419C22.953,23.297,24.038,24.382,25.371,24.382z"/>
<path fill="#424242" d="M75.299,7.129h-1.883v0.127c-0.634-0.076-1.276-0.127-1.929-0.127h-2.323h-2.64h-3.738H23.211H18.22  c-8.952,0-16.238,7.287-16.238,16.24v53.265c0,8.953,7.286,16.236,16.238,16.236h53.268c4.651,0,8.839-1.975,11.803-5.119  c8.506-0.469,15.282-7.111,15.282-15.232l-7.035-50.111C91.534,13.983,84.25,7.129,75.299,7.129z M64.336,14.268  c4.243,0,7.694,3.452,7.694,7.695c0,4.243-3.451,7.695-7.694,7.695c-4.242,0-7.694-3.452-7.694-7.695  C56.642,17.72,60.094,14.268,64.336,14.268z M25.371,14.268c4.243,0,7.695,3.452,7.695,7.695c0,4.243-3.453,7.695-7.695,7.695  s-7.695-3.452-7.695-7.695C17.675,17.72,21.128,14.268,25.371,14.268z M82.446,76.634c0,6.043-4.917,10.96-10.959,10.96H18.22  c-6.042,0-10.96-4.915-10.96-10.96V36.561h75.187V76.634z M86.844,81.87c0.561-1.646,0.879-3.404,0.879-5.236V36.855l0.559-0.043  l5.013,35.706C93.294,76.686,90.631,80.245,86.844,81.87z"/>
<path fill="#424242" d="M78.324,36.561c0,0,4.122,0.147,4.122,4.644c0,4.497,2.255-1.951,2.255-1.951s-0.586-4.178-0.807-4.178  c-0.22,0-2.712,0-2.712,0"/>
<path fill="#424242" d="M11.441,36.561c0,0-4.123,0.147-4.123,4.644c0,4.497-2.254-1.951-2.254-1.951s0.586-4.178,0.806-4.178  s2.713,0,2.713,0"/><g>
<path fill="#EF5350" d="M27.316,41.205H16.25c-3.82,0-4.22,2.498-4.251,3.295v8.046c0.031,0.801,0.431,3.298,4.251,3.298   c0.269,0,0.5,0.007,0.708,0.02h11.274c1.051-0.249,2.637-1.022,2.637-3.481v-7.56C30.868,41.157,27.316,41.205,27.316,41.205z    M25.591,50.588h-8.314v-4.106h8.314V50.588z"/>
<path fill="#EF5350" d="M50.736,41.205H39.671c-3.821,0-4.222,2.498-4.251,3.295v8.046c0.03,0.801,0.431,3.298,4.251,3.298   c0.268,0,0.5,0.007,0.707,0.02h11.274c1.05-0.249,2.635-1.022,2.635-3.481v-7.56C54.287,41.157,50.736,41.205,50.736,41.205z    M49.012,50.588h-8.315v-4.106h8.315V50.588z"/>
<path fill="#EF5350" d="M74.154,41.205H63.09c-3.82,0-4.222,2.498-4.251,3.295v8.046c0.029,0.801,0.431,3.298,4.251,3.298   c0.269,0,0.499,0.007,0.708,0.02h11.273c1.05-0.249,2.637-1.022,2.637-3.481v-7.56C77.708,41.157,74.154,41.205,74.154,41.205z    M72.43,50.588h-8.314v-4.106h8.314V50.588z"/>
<path fill="#EF5350" d="M27.316,60.553H16.25c-3.82,0-4.22,2.498-4.251,3.296v8.046c0.031,0.799,0.431,3.298,4.251,3.298   c0.269,0,0.5,0.005,0.708,0.02h11.274c1.051-0.251,2.637-1.023,2.637-3.483V64.17C30.868,60.506,27.316,60.553,27.316,60.553z    M25.591,69.936h-8.314V65.83h8.314V69.936z"/>
<path fill="#EF5350" d="M50.736,60.553H39.671c-3.821,0-4.222,2.498-4.251,3.296v8.046c0.03,0.799,0.431,3.298,4.251,3.298   c0.268,0,0.5,0.005,0.707,0.02h11.274c1.05-0.251,2.635-1.023,2.635-3.483V64.17C54.287,60.506,50.736,60.553,50.736,60.553z    M49.012,69.936h-8.315V65.83h8.315V69.936z"/>
<path fill="#EF5350" d="M74.154,60.553H63.09c-3.82,0-4.222,2.498-4.251,3.296v8.046c0.029,0.799,0.431,3.298,4.251,3.298   c0.269,0,0.499,0.005,0.708,0.02h11.273c1.05-0.251,2.637-1.023,2.637-3.483V64.17C77.708,60.506,74.154,60.553,74.154,60.553z    M72.43,69.936h-8.314V65.83h8.314V69.936z"/>
</g></svg>