<svg xmlns="http://www.w3.org/2000/svg" xmlns:xlink="http://www.w3.org/1999/xlink" version="1.1" x="0px" y="0px" viewBox="0 0 100 125" style="enable-background:new 0 0 100 100;" xml:space="preserve" fill="#ffffff"><g><g><path d="M86,47h-7v-7c0-1.105-0.895-2-2-2h-2c-1.105,0-2,0.895-2,2v7h-7c-1.105,0-2,0.895-2,2v2c0,1.105,0.895,2,2,2h7v7    c0,1.105,0.895,2,2,2h2c1.105,0,2-0.895,2-2v-7h7c1.105,0,2-0.895,2-2v-2C88,47.895,87.105,47,86,47z"/><path d="M45.737,57H34.21C21.944,57,12,66.93,12,79.18l0.053,2.623c0,3.422,2.778,6.197,6.206,6.197h43.536    C65.222,88,68,85.225,68,81.803l-0.053-2.623C67.947,66.93,58.004,57,45.737,57z"/><path d="M40,26.021c3.188,0,5.886,2.112,6.756,5H57c-0.999-8.445-8.223-15-17-15s-16.001,6.555-17,15h10.244    C34.114,28.134,36.812,26.021,40,26.021z"/><path d="M40,50.021c8.777,0,16.001-6.555,17-15H46.756c-0.87,2.887-3.568,5-6.756,5s-5.886-2.113-6.756-5H23    C23.999,43.466,31.223,50.021,40,50.021z"/><ellipse cx="40" cy="33.021" rx="3.023" ry="3"/></g></g><text x="0" y="115" fill="#000000" font-size="5px" font-weight="bold" font-family="'Helvetica Neue', Helvetica, Arial-Unicode, Arial, Sans-serif"></text><text x="0" y="120" fill="#000000" font-size="5px" font-weight="bold" font-family="'Helvetica Neue', Helvetica, Arial-Unicode, Arial, Sans-serif"></text></svg>