<svg xmlns="http://www.w3.org/2000/svg" xmlns:xlink="http://www.w3.org/1999/xlink" version="1.1" x="0px" y="0px" viewBox="0 0 100 125" style="enable-background:new 0 0 100 100;" xml:space="preserve">
	<path d="M55,93.5c0,0-2.9-1.7-3.1-1.8H15V17.5h9.2v5c0.3,0.5,0.9,0.8,1.6,0.8h33.1c0.7,0,1.4-0.4,1.6-1v-4.9h9.1  l0.1,39c1,0,2,0.2,2.9,0.8l1.1,0.6l-0.1-42.5c0-1.1-0.9-2-2-2H60.4V9.9c-0.2-0.6-0.9-1-1.6-1h-8.6c-0.9-4.3-4.1-7.4-7.9-7.4  c-3.8,0-7,3.2-7.9,7.4h-8.6c-0.7,0-1.3,0.3-1.6,0.8v3.6H13c-1.1,0-2,0.9-2,2v78.2c0,1.1,0.9,2,2,2h43.3L55,93.5z" fill="#424242"/>
	<path d="M48.1,75.9l1.1-1.9H25.8c-1.1,0-2,0.9-2,2s0.9,2,2,2h21.6C47.5,77.3,47.8,76.6,48.1,75.9z" fill="#424242"/>
	<path d="M55,64.1l1.4-2.5c0.1-0.2,0.2-0.4,0.4-0.5h-31c-1.1,0-2,0.9-2,2s0.9,2,2,2h27.5L55,64.1z" fill="#424242"/><path d="M59,38.7H25.8c-1.1,0-2-0.9-2-2s0.9-2,2-2H59c1.1,0,2,0.9,2,2S60.1,38.7,59,38.7z" fill="#424242"/>
	<path d="M59,52.2H25.8c-1.1,0-2-0.9-2-2s0.9-2,2-2H59c1.1,0,2,0.9,2,2S60.1,52.2,59,52.2z" fill="#424242"/>
	<path d="M88.3,77.6l-1.9-3.4v-3.7c0-0.8-0.5-1.6-1.2-2l-3.2-1.9L80,63.2c-0.4-0.7-1.2-1.2-2-1.2h-3.9l-3.3-1.9  c-0.7-0.4-1.6-0.4-2.4,0l-3.3,1.9h-3.8c-0.8,0-1.6,0.5-2,1.2l-1.9,3.3l-3.4,1.9c-0.7,0.4-1.2,1.2-1.2,2v3.9L51,77.6  c-0.2,0.4-0.3,0.8-0.3,1.2c0,0.4,0.1,0.8,0.3,1.2l1.9,3.2v3.9c0,0.8,0.5,1.6,1.2,2l3.4,1.9l1.9,3.3c0.4,0.7,1.2,1.2,2,1.2h3.8  l3.3,1.9c0.4,0.2,0.8,0.3,1.2,0.3c0.4,0,0.8-0.1,1.2-0.3l3.3-1.9H78c0.8,0,1.6-0.5,2-1.2l1.9-3.3l3.2-1.9c0.7-0.4,1.2-1.2,1.2-2  v-3.7l1.9-3.4C88.7,79.2,88.7,78.3,88.3,77.6z M77.7,77.5L74.2,81l0.8,4.9c0,0.2-0.1,0.5-0.3,0.6c-0.1,0.1-0.2,0.1-0.4,0.1  c-0.1,0-0.2,0-0.3-0.1l-4.4-2.3l-4.4,2.3c-0.2,0.1-0.5,0.1-0.7-0.1c-0.2-0.1-0.3-0.4-0.3-0.6l0.8-4.9l-3.6-3.5  c-0.2-0.2-0.2-0.4-0.2-0.7c0.1-0.2,0.3-0.4,0.5-0.4l4.9-0.7l2.2-4.4c0.2-0.4,1-0.4,1.2,0l2.2,4.4l4.9,0.7c0.2,0,0.5,0.2,0.5,0.4  C78,77.1,77.9,77.4,77.7,77.5z" fill="#EF5350"/></svg>