<svg xmlns="http://www.w3.org/2000/svg" xmlns:xlink="http://www.w3.org/1999/xlink" version="1.1" x="0px" y="0px" viewBox="0 0 20 25" enable-background="new 0 0 20 20" xml:space="preserve"><g><polygon fill="#EF5350" points="11.9,11.1 10.5,9.7 6.9,13.3 5.3,11.7 3.9,13.1 6.9,16.1  "/><circle fill="#424242" cx="5" cy="4" r="1"/><circle fill="#424242" cx="15" cy="4" r="1"/><path fill="#424242" d="M17,0H3C1.3,0,0,1.3,0,3v14c0,1.7,1.3,3,3,3h10.2c0.8,0,1.6-0.3,2.1-0.9l3.8-3.8c0.6-0.6,0.9-1.3,0.9-2.1V3   C20,1.3,18.7,0,17,0z M15,16.6V15h1.6L15,16.6z M18,13h-5v5H3c-0.6,0-1-0.4-1-1V8h16V13z M18,6H2V3c0-0.6,0.4-1,1-1h14   c0.6,0,1,0.4,1,1V6z"/></g></svg>