<svg xmlns:dc="http://purl.org/dc/elements/1.1/" xmlns:cc="http://creativecommons.org/ns#" xmlns:rdf="http://www.w3.org/1999/02/22-rdf-syntax-ns#" xmlns:svg="http://www.w3.org/2000/svg" xmlns="http://www.w3.org/2000/svg" xmlns:sodipodi="http://sodipodi.sourceforge.net/DTD/sodipodi-0.dtd" xmlns:inkscape="http://www.inkscape.org/namespaces/inkscape" viewBox="0 0 1028.6647 945.4194875000001" version="1.1" x="0px" y="0px"><g transform="translate(1277.3614,719.16003)"><path style="" d="m -783.65031,26.805116 c -9.9688,-5.63449 -26.8438,-14.93779 -37.5,-20.6739997 -33.4977,-18.0316803 -48.9059,-26.4339603 -64.375,-35.1045403 -8.25,-4.6242 -29.625,-16.28307 -47.5,-25.9086 -17.87501,-9.62552 -42.06251,-22.82096 -53.75001,-29.32319 -19.54228,-10.8722 -35.98358,-19.845726 -64.68748,-35.306156 l -10.9375,-5.89112 0,-83.02376 c 0,-45.66308 0.3167,-83.02378 0.7037,-83.02378 0.387,0 10.6526,5.53594 22.8125,12.30207 18.748,10.43204 51.32618,28.27099 57.73378,31.6135 1.0312,0.53795 14.5312,7.94288 30,16.4554 27.60831,15.19295 41.28511,22.64715 75.00001,40.8769 9.2812,5.0184 27.2812,14.85933 40,21.86873 12.7187,7.00941 31.2812,17.12755 41.25,22.48477 9.9687,5.35722 21.0781,11.3558 24.6875,13.3302 l 6.5625,3.5898 6.5625,-3.5898 c 3.6094,-1.9744 14.7188,-7.97298 24.6875,-13.3302 9.96875,-5.35722 28.53125,-15.47536 41.25,-22.48477 12.71876,-7.0094 30.71876,-16.85033 39.99996,-21.86873 33.715,-18.22975 47.3918,-25.68395 75,-40.8769 15.4688,-8.51252 28.9688,-15.92226 30,-16.4661 9.137,-4.81842 42.2934,-22.96475 60,-32.83768 l 21.875,-12.19714 0.3238,82.12748 c 0.1781,45.17011 0.082,82.76082 -0.2137,83.53492 -0.2957,0.7741 -5.5039,4.08267 -11.5738,7.3524 -28.9543,15.59694 -45.2376,24.484266 -64.7863,35.359976 -11.6875,6.50222 -35.875,19.69766 -53.75,29.32318 -17.875,9.62553 -39.25,21.2844 -47.5,25.9086 -15.5088,8.69283 -31.0778,17.18233 -64.37496,35.1024503 -10.65625,5.7350597 -27.75672,15.0946897 -38.001,20.7991597 -10.2444,5.70448 -19.2444,10.31545 -20,10.24662 -0.7557,-0.0688 -9.5303,-4.7352 -19.499,-10.36969 z m -414.33999,-37.23146 c -0.5292,-1.5104 -4.4504,-16.09375 -20.2734,-75.39869 -3.1183,-11.6875 -5.9528,-22.234376 -6.2989,-23.437496 -0.3461,-1.20313 -0.3492,-2.1875 -0.01,-2.1875 0.3424,0 9.1268,-2.25 19.5208,-5 10.3941,-2.75 27.2718,-7.21569 37.5062,-9.92376 10.2343,-2.70807 21.7655,-5.84173 25.625,-6.9637 l 7.0166,-2.03994 -0.013,-115.2238 -0.013,-115.2238 -71.2144,-38.125 c -39.1679,-20.96875 -71.2156,-38.40625 -71.217,-38.75 0,-0.54964 23.263,-13.11339 144.869,-78.23216 15.5171,-8.30894 40.3061,-21.59972 55.0874,-29.53507 14.7812,-7.93535 38.4062,-20.61103 52.5,-28.16818 158.26309,-84.86169 249.33369,-133.71549 254.99999,-136.79189 l 6.875,-3.7327 118.12496,63.3916 c 64.9688,34.8654 129.6563,69.575 143.75,77.13245 14.0938,7.55745 37.7188,20.23337 52.5,28.16872 14.7813,7.93535 39.5704,21.22613 55.0869,29.53507 121.5922,65.11141 144.8715,77.68252 144.8715,78.23216 0,0.54964 -23.2793,13.12075 -144.8715,78.23216 -15.5165,8.30894 -40.3056,21.59971 -55.0869,29.53506 -14.7812,7.93535 -38.4062,20.61104 -52.5,28.16819 -158.0475,84.74615 -249.33416,133.71576 -254.99996,136.79166 l -6.875,3.73238 -116.875,-62.72333 c -64.28131,-34.49783 -129.53129,-69.51631 -144.99999,-77.81883 -15.4688,-8.30253 -37.4063,-20.03437 -48.75,-26.07075 l -20.625,-10.97525 -0.3174,153.63196 -0.3174,153.631946 -4.6826,1.3439 c -2.5754,0.73914 -24.6514,6.69075 -49.0576,13.22579 -24.4063,6.53505 -45.3622,12.1824103 -46.5687,12.5497003 -1.2111,0.36867 -2.4524,-0.0706 -2.7713,-0.9809003 z m 454.64519,-405.941886 c 17.98126,-4.59884 31.19893,-13.84541 36.74699,-25.7068 5.62985,-12.03623 2.43714,-25.07886 -8.62501,-35.2343 -24.12248,-22.14528 -72.73188,-22.14528 -96.85438,0 -28.3962,26.06872 -0.4388,62.99757 47.9147,63.29047 7.3513,0.0445 14.7005,-0.78487 20.8177,-2.34937 z" fill="#444444"/></g><text x="0" y="771.33559" fill="#000000" font-size="5px" font-weight="bold" font-family="'Helvetica Neue', Helvetica, Arial-Unicode, Arial, Sans-serif"></text><text x="0" y="776.33559" fill="#000000" font-size="5px" font-weight="bold" font-family="'Helvetica Neue', Helvetica, Arial-Unicode, Arial, Sans-serif"></text></svg>