<svg xmlns="http://www.w3.org/2000/svg" xmlns:xlink="http://www.w3.org/1999/xlink" version="1.1" x="0px" y="0px" viewBox="0 0 100 125" enable-background="new 0 0 100 100" xml:space="preserve"><g>
	<g><polygon points="5.237,33.15 5.237,89.387 38.828,58.868   " fill="#424242"/></g>
	<g><polygon points="95.448,89.579 95.448,32.96 61.667,58.868   " fill="#424242"/></g>
	<g><path d="M58.404,61.366l-6.908,5.371c-0.385,0.192-0.77,0.385-1.155,0.385c-0.381,0-0.766-0.192-1.151-0.385l-7.099-5.371    l-33.972,30.9H92.57L58.404,61.366z" fill="#424242"/></g>
	<g><path d="M51.609,46.438c0,0-0.641,0.484-0.938,0.484c-0.297,0-0.978-0.452-0.978-0.452L27.34,29.206    c-1.776-1.373-2.102-3.914-0.729-5.691c1.373-1.774,3.925-2.099,5.703-0.722l18.4,14.232L88.07,9.344    c1.803-1.338,4.352-0.958,5.686,0.846c1.338,1.805,0.958,4.327-0.846,5.664L51.609,46.438z" fill="#EF5350"/></g></g></svg>