<svg xmlns="http://www.w3.org/2000/svg" xmlns:xlink="http://www.w3.org/1999/xlink" version="1.1" x="0px" y="0px" viewBox="0 0 64 80" enable-background="new 0 0 64 64" xml:space="preserve"><g><g><path d="M36.072,47.674c-1.968,0-19.646,0-21.614-0.001c-0.152,0-0.305-0.001-0.455-0.022c-0.653-0.092-1.094-0.612-1.078-1.262    c0.015-0.643,0.49-1.15,1.14-1.214c0.076-0.007,0.152-0.005,0.228-0.005c4.045,0,23.8-0.002,27.846,0    c0.943,0,1.555,0.722,1.329,1.57c-0.133,0.497-0.466,0.801-0.971,0.9c-0.169,0.033-0.346,0.033-0.519,0.033    C40.009,47.674,38.04,47.674,36.072,47.674z" fill="#EF5350"/><path d="M36.096,38.064c-2.077,0-19.864,0.004-21.941-0.002c-0.63-0.002-1.141-0.456-1.219-1.054    c-0.085-0.657,0.286-1.229,0.912-1.39c0.135-0.035,0.279-0.041,0.419-0.041c4.067-0.002,23.844-0.003,27.911-0.001    c0.737,0,1.249,0.438,1.33,1.122c0.07,0.592-0.332,1.177-0.925,1.326c-0.145,0.037-0.301,0.038-0.452,0.039    C40.12,38.065,38.108,38.064,36.096,38.064z" fill="#EF5350"/><path d="M36.079,42.872c-2.044,0-19.798,0.004-21.843-0.002c-0.807-0.002-1.356-0.576-1.308-1.34    c0.037-0.581,0.456-1.044,1.034-1.135c0.118-0.018,0.238-0.024,0.357-0.024c4.024-0.001,23.757-0.002,27.78,0    c0.718,0,1.194,0.316,1.362,0.889c0.239,0.815-0.341,1.6-1.217,1.609c-1.337,0.014-2.675,0.004-4.013,0.005    C37.514,42.873,36.796,42.872,36.079,42.872z" fill="#EF5350"/></g><g><path d="M32.08,30.863c-0.757-1.582-1.502-3.142-2.248-4.702c-0.753-1.575-1.513-3.146-2.254-4.727    c-0.101-0.216-0.153-0.475-0.154-0.715c-0.01-3.286-0.007-6.572-0.007-9.858c0-0.165,0-0.33,0-0.489    c-2.758-0.687-7.49,2.042-9.395,5.399c-2.395,4.219-1.686,9.538,1.728,12.972C23.306,32.318,28.434,32.685,32.08,30.863z" fill="#424242"/><path d="M33.673,31.304c3.362-1.189,6.628-6.393,6.099-9.706c-3.551,0-7.106,0-10.739,0    C30.592,24.859,32.133,28.083,33.673,31.304z" fill="#424242"/><path d="M28.591,19.936c0-3.601,0-7.169,0-10.737c5.33-0.186,10.768,4.376,10.766,10.737    C35.751,19.936,32.173,19.936,28.591,19.936z M38.608,19.279c-0.036-4.696-4.411-9.266-9.345-9.371c0,3.112,0,6.223,0,9.371    C32.407,19.279,35.507,19.279,38.608,19.279z" fill="#424242"/></g><path d="M55.335,8.276h-4.224V4.478c0-1.842-1.493-3.335-3.335-3.335H8.665c-1.842,0-3.335,1.493-3.335,3.335v0.498v47.44   c0,1.842,1.493,3.335,3.335,3.335h4.26v3.772c0,1.842,1.493,3.335,3.335,3.335h0.107h38.931h0.037c1.842,0,3.335-1.493,3.335-3.335   V11.611C58.67,9.769,57.177,8.276,55.335,8.276z M9.696,51.43V5.65c0-0.036-0.036-0.107,0-0.177h36.695c0.213,0,0.319,0,0.39,0.035   c0.036,0.071,0.036,0.178,0.036,0.391v2.378v4.329V51.43H17.254h-4.329H9.696z M51.111,52.3V12.605l3.3-0.105v9.51   c-0.036,2.662,0,5.359,0,7.985v28.568H17.254v-2.839l30.531-0.089C49.623,55.629,51.111,54.138,51.111,52.3z" fill="#424242"/></g></svg>