<svg xmlns="http://www.w3.org/2000/svg" xmlns:xlink="http://www.w3.org/1999/xlink" version="1.1" x="0px" y="0px" viewBox="0 0 23.889 23.9775" style="enable-background:new 0 0 23.889 19.182;" xml:space="preserve"><g>
	<polygon points="22.475,12.818 18.939,16.354 17.525,14.939 16.111,16.354 18.939,19.182 23.889,14.232  " fill="#EF5350"/><rect x="12" y="9" width="1" height="1" fill="#424242"/><rect x="10" y="7" width="1" height="1" fill="#424242"/><path d="M11.5,4C9.015,4,7,6.015,7,8.5S9.015,13,11.5,13c2.485,0,4.5-2.015,4.5-4.5S13.985,4,11.5,4z M14,7h-2v1h2v3h-2v1h-1v-1H9   v-1h2V9H9V6h2V5h1v1h2V7z" fill="#424242"/><path d="M1,17h12.586c-0.052-0.327-0.086-0.659-0.086-1c0-0.341,0.034-0.673,0.086-1l0,0H4c0-1.104-0.896-2-2-2V4   c1.104,0,2-0.895,2-2h15c0,1.105,0.895,2,2,2v5.58v0.005c0.711,0.11,1.385,0.331,2,0.652V1c0-0.552-0.447-1-1-1H1   C0.447,0,0,0.448,0,1v15C0,16.552,0.447,17,1,17z" fill="#424242"/></g></svg>