<svg xmlns="http://www.w3.org/2000/svg" xmlns:xlink="http://www.w3.org/1999/xlink" version="1.1" x="0px" y="0px" viewBox="0 0 100 125" style="enable-background:new 0 0 100 100;" xml:space="preserve" fill="#ffffff"><g><g><path d="M80.945,59.069h-3.116v-2.665C81.921,55.543,85,51.792,85,47.295C85,42.162,80.987,38,76.037,38s-8.963,4.162-8.963,9.295    c0,4.497,3.079,8.247,7.171,9.109v2.665h-2.892c-0.99,0-1.793,0.832-1.793,1.859s0.803,1.859,1.793,1.859h2.892v1.859    c0,1.027,0.803,1.859,1.793,1.859s1.793-0.832,1.793-1.859v-1.859h3.116c0.99,0,1.793-0.832,1.793-1.859    S81.935,59.069,80.945,59.069z M76.037,52.873c-2.965,0-5.378-2.502-5.378-5.577s2.413-5.577,5.378-5.577s5.378,2.502,5.378,5.577    S79.002,52.873,76.037,52.873z"/><path d="M45.737,57H34.21C21.944,57,12,66.93,12,79.18l0.053,2.623c0,3.422,2.778,6.197,6.206,6.197h43.536    C65.222,88,68,85.225,68,81.803l-0.053-2.623C67.947,66.93,58.004,57,45.737,57z"/><path d="M40,26.021c3.188,0,5.886,2.112,6.756,5H57c-0.999-8.445-8.223-15-17-15s-16.001,6.555-17,15h10.244    C34.114,28.134,36.812,26.021,40,26.021z"/><path d="M40,50.021c8.777,0,16.001-6.555,17-15H46.756c-0.87,2.887-3.568,5-6.756,5s-5.886-2.113-6.756-5H23    C23.999,43.466,31.223,50.021,40,50.021z"/><ellipse cx="40" cy="33.021" rx="3.023" ry="3"/></g></g><text x="0" y="115" fill="#000000" font-size="5px" font-weight="bold" font-family="'Helvetica Neue', Helvetica, Arial-Unicode, Arial, Sans-serif"></text><text x="0" y="120" fill="#000000" font-size="5px" font-weight="bold" font-family="'Helvetica Neue', Helvetica, Arial-Unicode, Arial, Sans-serif"></text></svg>