<?xml version="1.0" encoding="utf-8"?>
<!-- Generator: Adobe Illustrator 18.0.0, SVG Export Plug-In . SVG Version: 6.00 Build 0)  -->
<!DOCTYPE svg PUBLIC "-//W3C//DTD SVG 1.1//EN" "http://www.w3.org/Graphics/SVG/1.1/DTD/svg11.dtd">
<svg version="1.1" id="Layer_1" xmlns="http://www.w3.org/2000/svg" xmlns:xlink="http://www.w3.org/1999/xlink" x="0px" y="0px"
	 viewBox="0 0 75 75" enable-background="new 0 0 75 75" xml:space="preserve">
<g>
	<path fill="#BCC4C8" d="M38.5,68.3c16.4,0,29.7-13.3,29.7-29.7C68.1,22.3,54.9,9,38.5,9C22.1,9,8.8,22.3,8.8,38.7
		C8.8,55,22.1,68.3,38.5,68.3z M38.5,15.4c12.8,0,23.2,10.4,23.2,23.2S51.3,61.9,38.5,61.9c-12.8,0-23.2-10.4-23.2-23.2
		S25.7,15.4,38.5,15.4z M32.7,51.1h11.6V37.9h7.3L38.5,25.6L25.4,37.9h7.3V51.1z"/>
</g>
</svg>
