<svg xmlns="http://www.w3.org/2000/svg" xmlns:xlink="http://www.w3.org/1999/xlink" version="1.1" x="0px" y="0px" viewBox="0 0 100 125" style="enable-background:new 0 0 100 100;" xml:space="preserve" fill="#ffffff"><g><path d="M96,44.9L53.2,6.1c-1.8-1.7-4.6-1.7-6.4,0L4,45c-1.9,1.8-2,4.7-0.4,6.7c0.9,1.1,2.2,1.5,3.5,1.5c1.2,0,2.2-0.4,3.2-1.2   L50,16l39.6,36c1.9,1.8,5,1.7,6.7-0.4C98.1,49.8,98,46.7,96,44.9z"/><path d="M15.1,51.4l7.1,43.7h20.6L41,73.8c-0.1-0.7,0.5-1.3,1.2-1.3H58c0.7,0,1.3,0.6,1.2,1.3l-1.9,21.4h21.1l7.1-43.7L50,20.2   L15.1,51.4z M58,50c0,4.4-3.6,8-8,8s-8-3.6-8-8s3.6-8,8-8S58,45.6,58,50z"/></g><text x="0" y="115" fill="#000000" font-size="5px" font-weight="bold" font-family="'Helvetica Neue', Helvetica, Arial-Unicode, Arial, Sans-serif"></text><text x="0" y="120" fill="#000000" font-size="5px" font-weight="bold" font-family="'Helvetica Neue', Helvetica, Arial-Unicode, Arial, Sans-serif"></text></svg>