<svg xmlns:dc="http://purl.org/dc/elements/1.1/" xmlns:cc="http://creativecommons.org/ns#" xmlns:rdf="http://www.w3.org/1999/02/22-rdf-syntax-ns#" xmlns:svg="http://www.w3.org/2000/svg" xmlns="http://www.w3.org/2000/svg" xmlns:sodipodi="http://sodipodi.sourceforge.net/DTD/sodipodi-0.dtd" xmlns:inkscape="http://www.inkscape.org/namespaces/inkscape" version="1.1" x="0px" y="0px" viewBox="0 0 100 125"><g transform="translate(0,-952.36205)">
	<path style="text-indent:0;text-transform:none;direction:ltr;block-progression:tb;baseline-shift:baseline;color:#000000;enable-background:accumulate;" d="m 49.795102,958.40048 c -13.821,0 -25.062501,11.25171 -25.062501,25.0625 0,2.87441 1.2889,6.2044 3.125,10.15624 1.836201,3.9519 4.304901,8.39328 6.906301,12.84368 5.2027,8.901 11.0144,17.8722 13.2812,22.125 a 2.000005,2.000005 0 0 0 3.5313,0 c 2.2611,-4.251 8.0486,-13.2241 13.249997,-22.125 2.6007,-4.4504 5.0702,-8.89188 6.9062,-12.84368 1.836,-3.95183 3.125,-7.28183 3.125,-10.15624 0,-13.81079 -11.250597,-25.0625 -25.062497,-25.0625 z m 0,4 c 11.6482,0 21.062497,9.41331 21.062497,21.0625 0,1.4706 -1.0063,4.71551 -2.75,8.46874 -1.7437,3.7532 -4.1507,8.13668 -6.718697,12.53128 -4.1507,7.1026 -8.6939,14.1919 -11.5938,19.1249 -2.9028,-4.9322 -7.4418,-12.0219 -11.5937,-19.1249 -2.5686,-4.3945 -4.9749,-8.77808 -6.7188,-12.53128 -1.7438,-3.75314 -2.75,-6.99813 -2.75,-8.46874 0,-11.64919 9.4035,-21.0625 21.0625,-21.0625 z" fill="#424242" fill-opacity="1" fill-rule="evenodd" stroke="none" marker="none" visibility="visible" display="inline" overflow="visible"/>
	<path style="text-indent:0;text-transform:none;direction:ltr;block-progression:tb;baseline-shift:baseline;color:#000000;enable-background:accumulate;" d="m 30.994302,1026.3094 a 2.000005,2.000005 0 0 0 -1.065,0.3613 c -2.714901,1.8496 -4.661901,4.3554 -4.661901,7.3338 0,2.0271 0.9382,3.8896 2.3513,5.389 1.413101,1.4995 3.310801,2.7218 5.565301,3.7332 4.509,2.0228 10.4899,3.1969 17.0884,3.1969 6.5936,0 12.572,-1.174 17.079697,-3.1969 2.2539,-1.0114 4.1512,-2.2337 5.5641,-3.7332 1.4128,-1.4993 2.3512,-3.3619 2.3512,-5.389 0,-2.922 -1.8791,-5.3966 -4.5037,-7.221 a 2.000005,2.000005 0 1 0 -2.2828,3.2842 c 1.9907,1.3837 2.7868,2.7514 2.7868,3.9368 0,0.8236 -0.3485,1.676 -1.2625,2.646 -0.9139,0.9699 -2.3835,1.9713 -4.2906,2.8272 -3.814197,1.7116 -9.333297,2.8465 -15.442197,2.8465 -6.1141,0 -11.6358,-1.1349 -15.4512,-2.8465 -1.9077,-0.856 -3.3778,-1.8573 -4.2919,-2.8272 -0.9141,-0.97 -1.2625,-1.8224 -1.2625,-2.646 0,-1.2107 0.8304,-2.6084 2.9147,-4.0285 a 2.000005,2.000005 0 0 0 -1.1872,-3.6666 z" fill="#EF5350" fill-opacity="1" fill-rule="evenodd" stroke="none" marker="none" visibility="visible" display="inline" overflow="visible"/>
	<path style="text-indent:0;text-transform:none;direction:ltr;block-progression:tb;baseline-shift:baseline;color:#000000;enable-background:accumulate;" d="m 42.222402,1027.6582 a 2.000005,2.000005 0 0 0 -1.064,0.3634 c -1.3071,0.8942 -2.4535,2.2487 -2.4535,4.0106 0,1.1958 0.5641,2.2653 1.2982,3.0433 0.734,0.7778 1.6486,1.3503 2.6878,1.8161 2.0783,0.9319 4.6994,1.432 7.5815,1.432 2.8821,0 5.5012,-0.5 7.5775,-1.4322 1.0382,-0.4662 1.9518,-1.039 2.6847,-1.8172 0.733,-0.7781 1.295,-1.8477 1.295,-3.042 0,-1.7308 -1.1055,-3.0661 -2.3715,-3.9556 a 2.000005,2.000005 0 1 0 -2.2994,3.2729 c 0.6536,0.4593 0.6712,0.7177 0.6712,0.6827 0,-0.01 0.0274,0.051 -0.2068,0.2995 -0.2343,0.2487 -0.72,0.6006 -1.4113,0.911 -1.3827,0.6208 -3.5424,1.0811 -5.9394,1.0811 -2.397,0 -4.5596,-0.4605 -5.9453,-1.0818 -0.6929,-0.3106 -1.1803,-0.6625 -1.4153,-0.9115 -0.235,-0.249 -0.2072,-0.3086 -0.2072,-0.2983 0,0.025 0.0176,-0.2347 0.7119,-0.7095 a 2.000005,2.000005 0 0 0 -1.1941,-3.6645 z" fill="#EF5350" fill-opacity="1" fill-rule="evenodd" stroke="none" marker="none" visibility="visible" display="inline" overflow="visible"/>
	<path style="text-indent:0;text-transform:none;direction:ltr;block-progression:tb;baseline-shift:baseline;color:#000000;enable-background:accumulate;" d="m 49.797102,970.66358 c 6.6794,0 12.0603,5.37131 12.0603,12.0603 0,6.6776 -5.3827,12.06034 -12.0603,12.06034 -6.689,0 -12.0703,-5.38274 -12.0703,-12.06034 0,-6.68899 5.3796,-12.0603 12.0703,-12.0603 z" fill="#424242" fill-opacity="1" fill-rule="evenodd" stroke="none" marker="none" visibility="visible" display="inline" overflow="visible"/></g></svg>