<svg xmlns="http://www.w3.org/2000/svg" xmlns:xlink="http://www.w3.org/1999/xlink" version="1.1" x="0px" y="0px" viewBox="0 0 100 125" style="enable-background:new 0 0 100 100;" xml:space="preserve"><g><g>
	<path d="M87.401,48.347c1.304-1.033,0.634-3.282-0.978-3.282h-5.51c-0.721,0-1.36-0.506-1.583-1.253l-1.369-4.592    c-0.568-1.905-3.266-1.905-3.833,0l-1.369,4.592c-0.223,0.747-0.862,1.253-1.583,1.253h-5.51c-1.612,0-2.282,2.249-0.978,3.282    l4.458,3.53c0.583,0.462,0.827,1.281,0.605,2.028l-1.703,5.712c-0.498,1.671,1.257,3.061,2.561,2.028l4.194-3.322    c0.728-0.576,1.756-0.576,2.483,0l4.194,3.322c1.304,1.033,3.059-0.357,2.561-2.028l-1.703-5.712    c-0.223-0.747,0.021-1.566,0.604-2.028L87.401,48.347z" fill="#EF5350"/>
	<path d="M45.737,57H34.21C21.944,57,12,66.93,12,79.18l0.053,2.623c0,3.422,2.778,6.197,6.206,6.197h43.536    C65.222,88,68,85.225,68,81.803l-0.053-2.623C67.947,66.93,58.004,57,45.737,57z" fill="#424242"/><path d="M40,26.021c3.188,0,5.886,2.112,6.756,5H57c-0.999-8.445-8.223-15-17-15s-16.001,6.555-17,15h10.244    C34.114,28.134,36.812,26.021,40,26.021z" fill="#424242"/>
	<path d="M40,50.021c8.777,0,16.001-6.555,17-15H46.756c-0.87,2.887-3.568,5-6.756,5s-5.886-2.113-6.756-5H23    C23.999,43.466,31.223,50.021,40,50.021z" fill="#424242"/>
	<ellipse cx="40" cy="33.021" rx="3.023" ry="3" fill="#EF5350"/></g></g></svg>