<svg xmlns="http://www.w3.org/2000/svg" xmlns:xlink="http://www.w3.org/1999/xlink" version="1.1" x="0px" y="0px" viewBox="0 0 20 25" enable-background="new 0 0 20 20" xml:space="preserve"><g>
<polygon fill="#424242" points="2,2 15,2 15,10 17,10 17,0 0,0 0,18 10,18 10,16 2,16  "/><rect x="4" y="4" fill="#424242" width="9" height="2"/>
<rect x="4" y="8" fill="#424242" width="9" height="2"/>
<rect x="4" y="12" fill="#424242" width="7" height="2"/>
<path fill="#EF5350" d="M20,17v-2h-1.2c0-0.1-0.1-0.2-0.1-0.3l0.8-0.8l-1.4-1.4l-0.8,0.8c-0.1,0-0.2-0.1-0.3-0.1V12h-2v1.2   c-0.1,0-0.2,0.1-0.3,0.1l-0.8-0.8l-1.4,1.4l0.8,0.8c0,0.1-0.1,0.2-0.1,0.3H12v2h1.2c0,0.1,0.1,0.2,0.1,0.3l-0.8,0.8l1.4,1.4   l0.8-0.8c0.1,0,0.2,0.1,0.3,0.1V20h2v-1.2c0.1,0,0.2-0.1,0.3-0.1l0.8,0.8l1.4-1.4l-0.8-0.8c0-0.1,0.1-0.2,0.1-0.3H20z M17,16   c0,0.6-0.4,1-1,1s-1-0.4-1-1c0-0.6,0.4-1,1-1S17,15.4,17,16z"/></g></svg>